<svg width="670" height="670" viewBox="0 0 670 670" fill="none" xmlns="http://www.w3.org/2000/svg">
<rect width="670" height="670" fill="#D2D3D8"/>
<path opacity="0.3" d="M412.124 425.766H401.935C401.453 408.219 394.143 391.552 381.561 379.312C368.98 367.071 352.119 360.223 334.565 360.223C317.011 360.223 300.15 367.071 287.568 379.312C274.986 391.552 267.677 408.219 267.194 425.766H257.006C257.524 405.54 265.923 386.317 280.412 372.195C294.9 358.073 314.332 350.169 334.565 350.169C354.797 350.169 374.229 358.073 388.718 372.195C403.206 386.317 411.605 405.54 412.124 425.766Z" fill="#20243C"/>
<path opacity="0.3" d="M334.599 332.843C325.811 332.853 317.218 330.256 309.906 325.381C302.594 320.506 296.893 313.572 293.523 305.456C290.153 297.34 289.266 288.407 290.974 279.786C292.683 271.166 296.909 263.246 303.12 257.029C309.33 250.811 317.245 246.575 325.863 244.857C334.482 243.139 343.416 244.016 351.536 247.377C359.656 250.737 366.596 256.431 371.48 263.737C376.363 271.043 378.97 279.633 378.97 288.421C378.956 300.19 374.279 311.473 365.962 319.799C357.645 328.125 346.367 332.816 334.599 332.843ZM334.599 254.239C327.824 254.229 321.199 256.23 315.561 259.987C309.924 263.745 305.528 269.091 302.931 275.348C300.334 281.606 299.651 288.493 300.971 295.138C302.29 301.783 305.551 307.888 310.342 312.678C315.133 317.469 321.237 320.731 327.882 322.05C334.528 323.369 341.415 322.687 347.672 320.09C353.929 317.492 359.275 313.097 363.033 307.459C366.791 301.822 368.791 295.196 368.781 288.421C368.768 279.36 365.162 270.673 358.755 264.266C352.347 257.858 343.661 254.253 334.599 254.239Z" fill="#20243C"/>
</svg>
