<?xml version="1.0" encoding="UTF-8"?><svg xmlns="http://www.w3.org/2000/svg" viewBox="0 0 484 322"><defs><style>.d{fill:#f5f5f5;}.e{fill:#fff;}.f{fill:#f1f2fc;}.g{fill:#dcdffa;}.h{fill:#2f203f;}.i{fill:#5f68a7;}.j{stroke:#5f68a7;}.j,.k{stroke-width:1.31px;}.j,.k,.l{fill:none;stroke-miterlimit:10;}.k{stroke:#fff;}.l{stroke:#86bd7c;stroke-width:2.49px;}</style></defs><g id="a"/><g id="b"><g id="c"><rect class="d" width="484" height="322"/><g><path class="l" d="M228.49,206.99s.88-1.83,2.35-5.52"/><path class="l" d="M170.04,241.67c25.21,0,47.15-14.02,58.45-34.68"/><path class="l" d="M117.86,216.45c12.2,15.37,31.04,25.22,52.18,25.22"/><path class="l" d="M103.46,175.09c0,15.63,5.38,30,14.4,41.36"/></g><path class="h" d="M234.94,80.33h107.18c2.81,0,5.09,2.28,5.09,5.09v4.92h-117.35v-4.92c0-2.81,2.28-5.09,5.09-5.09Z"/><rect class="h" x="229.8" y="90.34" width="117.35" height="102.96"/><line class="k" x1="239.11" y1="100.03" x2="247.03" y2="100.03"/><line class="j" x1="239.11" y1="106.76" x2="269.21" y2="106.76"/><line class="j" x1="239.11" y1="112.96" x2="256.21" y2="112.96"/><line class="k" x1="254.88" y1="126.47" x2="239.34" y2="126.47"/><line class="k" x1="247.39" y1="136.41" x2="239.34" y2="136.41"/><path class="l" d="M380.44,172.71c.35,37.43-29.7,68.05-67.13,68.4"/><g><path class="l" d="M312.95,106.37c36.98-.35,67.24,29.35,67.59,66.33"/><path class="l" d="M255.67,141.7c12.24-20.28,31.92-35.09,57.28-35.33"/></g><rect class="e" x="142.23" y="131.17" width="114.09" height="100.1"/><rect class="g" x="142.23" y="131.17" width="24.74" height="100.24"/><path class="i" d="M147.18,122.03h104.2c2.73,0,4.95,2.22,4.95,4.95v4.79h-114.09v-4.79c0-2.73,2.22-4.95,4.95-4.95Z"/><rect class="d" x="170.77" y="184.38" width="33.48" height="4.34" rx=".36" ry=".36"/><rect class="d" x="170.77" y="191.58" width="58.47" height="4.23" rx=".36" ry=".36"/><rect class="d" x="207.56" y="137.81" width="43.84" height="26.14"/><circle class="f" cx="154.5" cy="146.32" r="6.81"/><path class="l" d="M170.6,106.91c-37.43,.35-67.48,30.97-67.13,68.4"/><path class="l" d="M170.6,106.91c13.29-.12,25.72,3.58,36.24,10.1,11.78,7.29,20.91,18.16,26.41,30.87,3.32,7.67,9.32,22.6,16.8,45.69,1.25,3.86,2.84,7.62,4.74,11.22"/><path class="l" d="M254.79,204.78c10.11,19.16,28.94,33.89,51.37,36.02,2.35,.22,4.74,.33,7.15,.31"/><g><rect class="d" x="171.3" y="138.86" width="27.72" height="25.18"/><polyline class="i" points="199.02 164 171.29 164 177.34 154.14 183.49 160.45 192.15 148.1"/><circle class="i" cx="183.21" cy="144.29" r="2.47"/></g></g></g></svg>