<svg viewBox="0 0 1920 720" xmlns="http://www.w3.org/2000/svg" xmlns:xlink="http://www.w3.org/1999/xlink"><clipPath id="a"><path d="m0 0h1920v720h-1920z"/></clipPath><g clip-path="url(#a)"><path d="m432.03 381.89-49.7 28.89-49.13-28.37 49.7-28.88z" fill="#e5e6e7"/><ellipse cx="386.21" cy="367.09" fill="#549fac" rx="3.29" ry="5.67" transform="matrix(.00279252 -.9999961 .9999961 .00279252 18.03 752.26)"/><path d="m379.69 348.4 45.16 26.07-26.21 15.23 5.26-16-34.12 3.46.2-11.73-19.15-.26z" fill="#6064ab"/><path d="m382.21 369.41c2.23 1.28 5.82 1.28 8.02 0 2.21-1.29 2.2-3.36-.03-4.65s-5.81-1.29-8.02 0c-2.2 1.28-2.19 3.37.03 4.65" fill="#1d0857"/><path d="m403.9 373.7-5.26 16-18.6 10.8-45.16-26.07 15.92-9.26 19.18.26-.2 11.73z" fill="#1d0857"/><path d="m169.62 433.62c11.65 6.73 11.71 17.64.14 24.36-11.58 6.73-30.41 6.73-42.07 0-11.65-6.73-11.71-17.63-.13-24.36s30.4-6.73 42.05 0z" fill="#e5e6e7"/><path d="m169.62 421.82c11.65 6.73 11.72 17.63.14 24.36s-30.41 6.73-42.07 0-11.71-17.63-.13-24.36 30.4-6.73 42.05 0z" fill="#6064ab"/><path d="m170.42 409.26c11.96 6.91 12.03 18.15.14 25.06s-31.3 6.91-43.26 0-12.04-18.15-.15-25.06 31.3-6.91 43.27 0zm-41.92 24.36c11.29 6.52 29.62 6.52 40.84 0 11.23-6.52 11.16-17.14-.13-23.66-11.3-6.52-29.62-6.53-40.85 0-11.23 6.52-11.16 17.14.14 23.66" fill="#392a71"/><path d="m231.65 270.84-91.02 52.9-112.88-65.17 91.02-52.9z" fill="#e5e6e7"/><path d="m230.07 251.1-91.03 52.9-112.87-65.17 91.02-52.9z" fill="#6064ab" opacity=".6"/><path d="m226.92 231.36-91.02 52.9-112.87-65.17 91.02-52.9z" fill="none" stroke="#392a71" stroke-miterlimit="10" stroke-width="1.71"/><path d="m129.75 214.57 13.64 21.31-36.83-7.83z" fill="#1d0857"/><path d="m322.75 567.58c5.76 3.32 5.79 8.72.07 12.05s-15.06 3.34-20.82.01-5.79-8.75-.07-12.07 15.06-3.31 20.82.01zm-18.58 10.8c4.54 2.62 11.93 2.62 16.45-.01 4.53-2.63 4.48-6.9-.05-9.52-4.56-2.63-11.93-2.64-16.45-.01-4.53 2.63-4.5 6.91.05 9.54" fill="#3c3e92"/><path d="m914.92 847.4c7.69 4.44 7.75 11.69.11 16.14l-368.17 213.96c-7.62 4.43-20.16 4.43-27.86-.01l-548.02-316.41c-7.69-4.44-7.71-11.69-.09-16.12l368.17-213.96c7.64-4.44 20.15-4.44 27.84 0l548.03 316.4z" fill="#6064ab"/><path d="m905.58 815.77c3.41 1.97 3.43 5.2.04 7.17l-372.32 216.37c-3.41 1.98-8.97 1.97-12.39 0l-575.24-332.11c-3.41-1.97-3.45-5.19-.04-7.17l372.32-216.37c3.39-1.97 8.97-1.97 12.39 0l575.24 332.12z" fill="#e5e6e7"/><g fill="#6064ab"><path d="m876.79 813.72c4.5 2.6 4.52 6.86.05 9.45l-10.42 6.06c-4.47 2.6-11.8 2.58-16.3-.01l-541.62-312.7c-4.5-2.6-4.52-6.83-.05-9.43l10.42-6.06c4.47-2.6 11.8-2.61 16.3-.01z" opacity=".6"/><path d="m379.96 578.97c4.18 2.41 4.18 6.32.03 8.73l-44.13 25.64c-4.15 2.41-10.88 2.41-15.06 0l-73.05-42.18c-4.16-2.4-4.2-6.31-.05-8.72l44.13-25.64c4.15-2.41 10.92-2.41 15.08-.01z"/><path d="m300.69 619.98c5.54 3.2 5.57 8.37.08 11.56l-83.89 48.75c-5.51 3.2-14.43 3.2-19.97 0l-68.14-39.34c-5.52-3.19-5.55-8.36-.05-11.56l83.89-48.75c5.49-3.19 14.41-3.19 19.93 0l68.14 39.34z"/><path d="m180.16 710.8c4.65 2.69 4.68 7.06.05 9.75l-56.98 33.11c-4.62 2.69-12.17 2.69-16.83 0l-71.3-41.16c-4.65-2.69-4.68-7.06-.05-9.75l56.98-33.11c4.62-2.69 12.17-2.69 16.83 0z" opacity=".6"/><path d="m412.2 599.15 395.31 228.23-270.29 157.08-395.31-228.23z"/></g><path d="m254.02 628.41c2.6 1.5 2.62 3.96.03 5.47l-.76.44c-2.59 1.5-6.83 1.5-9.44 0l-38.5-22.23c-2.6-1.5-2.62-3.96-.03-5.47l.76-.44c2.59-1.5 6.83-1.5 9.44 0z" fill="#fff"/><path d="m223.3 646.26c2.6 1.5 2.62 3.96.03 5.47l-.76.44c-2.59 1.5-6.83 1.5-9.44 0l-38.5-22.23c-2.6-1.5-2.62-3.96-.03-5.47l.76-.44c2.59-1.5 6.83-1.5 9.44 0z" fill="#fff"/><path d="m239.23 637.01c2.6 1.5 2.62 3.96.03 5.47l-.76.44c-2.59 1.5-6.83 1.5-9.44 0l-38.5-22.23c-2.6-1.5-2.62-3.96-.03-5.47l.76-.44c2.59-1.5 6.83-1.5 9.44 0z" fill="#fff"/><ellipse cx="312.38" cy="573.59" fill="#fff" rx="15.85" ry="27.36" transform="matrix(.00279252 -.9999961 .9999961 .00279252 -262.09 884.34)"/><path d="m886.68 795.7c5.11 2.95 5.14 7.75.06 10.7l-10.42 6.06c-5.08 2.95-13.37 2.95-18.48 0l-541.62-312.7c-5.11-2.95-5.14-7.75-.06-10.7l10.42-6.06c5.08-2.95 13.37-2.95 18.48 0l541.61 312.7zm-12.55 15.5 10.42-6.06c3.88-2.25 3.86-5.92-.05-8.18l-541.61-312.69c-3.91-2.25-10.24-2.25-14.12 0l-10.42 6.06c-3.88 2.25-3.86 5.92.05 8.18l541.61 312.7c3.91 2.25 10.24 2.25 14.12 0" fill="#3d317f"/><path d="m182.39 694.09c5.25 3.03 5.29 7.96.06 11l-56.98 33.11c-5.23 3.04-13.76 3.04-19.01.01l-71.3-41.16c-5.25-3.03-5.27-7.97-.04-11.01l56.98-33.11c5.23-3.04 13.74-3.03 18.99 0zm-59.11 42.85 56.98-33.11c4.02-2.33 4-6.14-.05-8.47l-71.3-41.16c-4.04-2.33-10.61-2.33-14.63 0l-56.98 33.11c-4.04 2.35-4.02 6.15.03 8.48l71.3 41.16c4.04 2.33 10.61 2.33 14.65-.01" fill="#1e0858"/></g></svg>