<?xml version="1.0" encoding="utf-8"?>
<svg viewBox="0 0 1920 720" xmlns="http://www.w3.org/2000/svg">
  <clipPath id="a">
    <path d="m0 0h1920v720h-1920z"/>
  </clipPath>
  <g clip-path="url(#a)">
    <path d="m1487.97 381.89 49.7 28.89 49.13-28.37-49.7-28.88z" fill="#e5e6e7"/>
    <ellipse cx="1533.79" cy="367.09" fill="#549fac" rx="5.67" ry="3.29" transform="matrix(.9999961 -.00279252 .00279252 .9999961 -1.03 4.35)"/>
    <path d="m1540.31 348.4-45.16 26.07 26.21 15.23-5.26-16 34.12 3.46-.2-11.73 19.15-.26z" fill="#6064ab"/>
    <path d="m1537.79 369.41c-2.23 1.28-5.82 1.28-8.02 0-2.21-1.29-2.2-3.36.03-4.65s5.81-1.29 8.02 0c2.2 1.28 2.19 3.37-.03 4.65" fill="#1d0857"/>
    <path d="m1516.1 373.7 5.26 16 18.6 10.8 45.16-26.07-15.92-9.26-19.18.26.2 11.73z" fill="#1d0857"/>
  </g>
</svg>