<?xml version="1.0" encoding="utf-8"?>
<svg viewBox="0 0 1920 720" xmlns="http://www.w3.org/2000/svg">
  <clipPath id="a">
    <path d="m0 0h1920v720h-1920z"/>
  </clipPath>
  <g clip-path="url(#a)">
    <path d="m1792.3 433.62c11.65 6.73 11.71 17.63.13 24.36s-30.4 6.73-42.05 0-11.71-17.63-.14-24.36c11.58-6.73 30.41-6.73 42.06 0z" fill="#e5e6e7"/>
    <path d="m1792.3 421.82c11.65 6.73 11.71 17.63.14 24.36s-30.41 6.73-42.06 0-11.71-17.63-.13-24.36 30.4-6.73 42.05 0z" fill="#6064ab"/>
    <path d="m1792.71 409.26c11.96 6.91 12.03 18.15.14 25.06s-31.3 6.91-43.27 0-12.03-18.15-.14-25.07 31.3-6.91 43.27 0zm-41.92 24.36c11.29 6.52 29.62 6.52 40.84 0s11.16-17.14-.13-23.66-29.63-6.52-40.85 0c-11.23 6.52-11.16 17.14.14 23.66" fill="#392a71"/>
  </g>
</svg>