<svg viewBox="0 0 1920 720" xmlns="http://www.w3.org/2000/svg" xmlns:xlink="http://www.w3.org/1999/xlink"><clipPath id="a"><path d="m0 0h1920v720h-1920z"/></clipPath><g clip-path="url(#a)"><path d="m1487.97 381.89 49.7 28.89 49.13-28.37-49.7-28.88z" fill="#e5e6e7"/><ellipse cx="1533.79" cy="367.09" fill="#549fac" rx="5.67" ry="3.29" transform="matrix(.9999961 -.00279252 .00279252 .9999961 -1.03 4.35)"/><path d="m1540.31 348.4-45.16 26.07 26.21 15.23-5.26-16 34.12 3.46-.2-11.73 19.15-.26z" fill="#6064ab"/><path d="m1537.79 369.41c-2.23 1.28-5.82 1.28-8.02 0-2.21-1.29-2.2-3.36.03-4.65s5.81-1.29 8.02 0c2.2 1.28 2.19 3.37-.03 4.65" fill="#1d0857"/><path d="m1516.1 373.7 5.26 16 18.6 10.8 45.16-26.07-15.92-9.26-19.18.26.2 11.73z" fill="#1d0857"/><path d="m1792.3 433.62c11.65 6.73 11.71 17.63.13 24.36s-30.4 6.73-42.05 0-11.71-17.63-.14-24.36c11.58-6.73 30.41-6.73 42.06 0z" fill="#e5e6e7"/><path d="m1792.3 421.82c11.65 6.73 11.71 17.63.14 24.36s-30.41 6.73-42.06 0-11.71-17.63-.13-24.36 30.4-6.73 42.05 0z" fill="#6064ab"/><path d="m1792.71 409.26c11.96 6.91 12.03 18.15.14 25.06s-31.3 6.91-43.27 0-12.03-18.15-.14-25.07 31.3-6.91 43.27 0zm-41.92 24.36c11.29 6.52 29.62 6.52 40.84 0s11.16-17.14-.13-23.66-29.63-6.52-40.85 0c-11.23 6.52-11.16 17.14.14 23.66" fill="#392a71"/><path d="m1896.97 270.84-91.02 52.9-112.87-65.17 91.02-52.9z" fill="#e5e6e7"/><path d="m1895.39 251.1-91.02 52.9-112.87-65.17 91.02-52.9z" fill="#6064ab" opacity=".6"/><path d="m1892.25 231.36-91.02 52.9-112.88-65.17 91.02-52.9z" fill="none" stroke="#392a71" stroke-miterlimit="10" stroke-width="1.71"/><path d="m1795.07 214.57 13.64 21.31-36.82-7.83z" fill="#1d0857"/><path d="m1618.07 567.56c5.72 3.33 5.69 8.75-.07 12.07s-15.1 3.31-20.82-.01c-5.72-3.33-5.69-8.72.07-12.05s15.1-3.34 20.82-.01zm-2.24 10.81c4.56-2.63 4.58-6.91.05-9.54s-11.9-2.62-16.45.01c-4.54 2.62-4.58 6.89-.05 9.52s11.92 2.63 16.45.01" fill="#3c3e92"/><path d="m1005.08 847.4c-7.69 4.44-7.75 11.69-.11 16.14l368.17 213.96c7.62 4.43 20.16 4.43 27.86-.01l548.03-316.4c7.69-4.44 7.71-11.69.09-16.12l-368.17-213.96c-7.64-4.44-20.15-4.44-27.84 0l-548.03 316.4z" fill="#6064ab"/><path d="m1014.42 815.77c-3.41 1.97-3.43 5.2-.04 7.17l372.32 216.37c3.41 1.98 8.97 1.97 12.39 0l575.24-332.12c3.41-1.97 3.45-5.19.04-7.17l-372.32-216.37c-3.39-1.97-8.97-1.97-12.39 0z" fill="#e5e6e7"/><g fill="#6064ab"><path d="m1043.21 813.72c-4.5 2.6-4.52 6.86-.05 9.45l10.42 6.06c4.47 2.6 11.8 2.58 16.3-.01l541.62-312.7c4.5-2.6 4.52-6.83.05-9.43l-10.42-6.06c-4.47-2.6-11.8-2.61-16.3-.01z" opacity=".6"/><path d="m1540.04 578.97c-4.18 2.41-4.18 6.32-.03 8.73l44.13 25.64c4.15 2.41 10.88 2.41 15.06 0l73.05-42.18c4.16-2.4 4.2-6.31.05-8.72l-44.13-25.64c-4.15-2.41-10.92-2.41-15.08-.01z"/><path d="m1619.31 619.98c-5.54 3.2-5.57 8.37-.08 11.56l83.89 48.75c5.51 3.2 14.43 3.2 19.97 0l68.14-39.34c5.52-3.19 5.55-8.36.05-11.56l-83.89-48.75c-5.49-3.19-14.41-3.19-19.93 0l-68.14 39.34z"/><path d="m1739.84 710.8c-4.65 2.69-4.68 7.06-.05 9.75l56.98 33.11c4.62 2.69 12.17 2.69 16.83 0l71.3-41.16c4.65-2.69 4.68-7.06.05-9.75l-56.98-33.11c-4.62-2.69-12.17-2.69-16.83 0z" opacity=".6"/><path d="m1778.1 756.23-395.31 228.23-270.29-157.08 395.31-228.23z"/></g><path d="m1665.98 628.41c-2.6 1.5-2.62 3.96-.03 5.47l.76.44c2.59 1.5 6.83 1.5 9.44 0l38.5-22.23c2.6-1.5 2.62-3.96.03-5.47l-.76-.44c-2.59-1.5-6.83-1.5-9.44 0z" fill="#fff"/><path d="m1696.7 646.26c-2.6 1.5-2.62 3.96-.03 5.47l.76.44c2.59 1.5 6.83 1.5 9.44 0l38.5-22.23c2.6-1.5 2.62-3.96.03-5.47l-.76-.44c-2.59-1.5-6.83-1.5-9.44 0z" fill="#fff"/><path d="m1680.77 637.01c-2.6 1.5-2.62 3.96-.03 5.47l.76.44c2.59 1.5 6.83 1.5 9.44 0l38.5-22.23c2.6-1.5 2.62-3.96.03-5.47l-.76-.44c-2.59-1.5-6.83-1.5-9.44 0z" fill="#fff"/><ellipse cx="1607.62" cy="573.59" fill="#fff" rx="27.36" ry="15.85" transform="matrix(.9999961 -.00279252 .00279252 .9999961 -1.62 4.55)"/><path d="m1574.93 483c5.11-2.95 13.4-2.95 18.48 0l10.42 6.06c5.08 2.95 5.05 7.75-.06 10.7l-541.61 312.7c-5.11 2.95-13.4 2.95-18.48 0l-10.42-6.06c-5.08-2.95-5.05-7.75.06-10.7zm-529.06 328.2c3.88 2.25 10.21 2.25 14.12 0l541.61-312.7c3.91-2.25 3.93-5.92.05-8.18l-10.42-6.06c-3.88-2.25-10.21-2.25-14.12 0l-541.61 312.7c-3.91 2.25-3.93 5.92-.05 8.18z" fill="#3d317f"/><path d="m1808.91 652.92c5.25-3.03 13.76-3.04 18.99 0l56.98 33.11c5.23 3.04 5.2 7.98-.04 11.01l-71.3 41.16c-5.25 3.03-13.78 3.03-19.01-.01l-56.98-33.11c-5.23-3.04-5.18-7.97.06-11zm-12.19 84.01c4.04 2.35 10.6 2.35 14.65.01l71.3-41.16c4.04-2.33 4.06-6.14.03-8.48l-56.98-33.11c-4.02-2.33-10.58-2.33-14.63 0l-71.3 41.16c-4.04 2.33-4.06 6.14-.05 8.47z" fill="#1e0858"/></g></svg>