<svg width="64" height="64" viewBox="0 0 64 64" fill="none" xmlns="http://www.w3.org/2000/svg">
<rect x="0.5" y="0.5" width="63" height="63" rx="3.5" fill="black"/>
<path d="M50.4422 14H12.3601C11.5057 14 10.813 14.8744 10.813 15.9529V16.1647C10.813 17.2433 11.5057 18.1176 12.3601 18.1176H50.4422C51.2967 18.1176 51.9893 17.2433 51.9893 16.1647V15.9529C51.9893 14.8744 51.2967 14 50.4422 14Z" stroke="white" stroke-miterlimit="10"/>
<path d="M51.9893 23.2646H24.1953V29.4411H51.9893V23.2646Z" fill="#404040"/>
<path d="M20.7604 22.9902H11.2524C10.9536 22.9902 10.7114 23.2324 10.7114 23.5312V48.1022C10.7114 48.401 10.9536 48.6431 11.2524 48.6431H20.7604C21.0591 48.6431 21.3013 48.401 21.3013 48.1022V23.5312C21.3013 23.2324 21.0591 22.9902 20.7604 22.9902Z" fill="#71A7FF"/>
<path d="M51.9893 33.5588H24.1953V49H51.9893V33.5588Z" fill="#404040"/>
<rect x="0.5" y="0.5" width="63" height="63" rx="3.5" stroke="white"/>
</svg>
