<svg width="64" height="64" viewBox="0 0 64 64" fill="none" xmlns="http://www.w3.org/2000/svg">
<rect x="0.5" y="0.5" width="63" height="63" rx="3.5" fill="black"/>
<path d="M17.4013 11.5H45.5987C48.8579 11.5 51.5 14.1421 51.5 17.4013V45.5987C51.5 48.8579 48.8579 51.5 45.5987 51.5H17.4013C14.1421 51.5 11.5 48.8579 11.5 45.5987V17.4013C11.5 14.1421 14.1421 11.5 17.4013 11.5Z" stroke="white"/>
<path d="M39.5143 31.2088L44.9633 24.4372C45.3337 23.9611 45.122 23.3792 44.4872 23.3792H43.4292C43.1117 23.3792 42.8472 23.5379 42.6885 23.7495L37.0808 30.6269L37.9801 28.405C37.9801 28.405 37.9801 28.1404 37.9801 28.0346L36.0227 23.8024C36.0227 23.8024 35.7053 23.3792 35.3879 23.3792H25.6008C23.6962 23.3792 21.8446 24.1198 20.5221 25.5482C18.7233 27.4527 18.353 30.0979 18.0356 32.5843C17.8769 33.9069 17.7711 35.2824 18.353 36.4462C19.1995 38.0862 20.7337 39.0914 22.6911 39.0914H27.8756C28.4575 39.0914 28.6691 38.7211 28.775 38.245L29.9917 31.7379C30.0446 31.2088 29.8859 30.7327 29.304 30.7327H25.1775C24.913 30.7327 24.7014 30.8914 24.7014 31.1559C24.7014 32.0553 25.4421 32.7959 26.2885 32.9546C27.0821 33.0604 27.0291 33.4308 26.9762 33.9598L26.553 36.5521C26.553 36.5521 26.4472 36.7108 26.2885 36.7108C22.9027 36.7108 20.0459 37.2398 20.6808 32.5843C21.1569 30.045 21.1569 27.5056 23.855 26.2888C25.2833 25.654 27.135 25.8656 28.6162 25.8656C29.7272 25.8656 30.3621 25.1779 30.5737 24.1727C32.6898 24.7017 33.9066 25.5482 34.8059 27.1353C35.5466 28.405 36.0756 29.7804 36.7104 31.103L31.1556 37.8746C31.1556 37.8746 30.8911 38.245 30.8911 38.5095C30.8911 38.8269 31.1027 39.1443 31.4201 39.1443H32.7427C33.0601 39.1443 33.3246 38.9856 33.5362 38.7211L37.8214 33.4308L40.0962 38.3508C40.3079 38.774 40.4666 39.1443 40.9427 39.1443H41.9479C42.2653 39.1443 42.5298 38.9856 42.6885 38.6682C42.7943 38.4037 42.6885 38.1921 42.5827 37.9804L39.4614 31.3146L39.5143 31.2088Z" fill="#FF8576"/>
<rect x="0.5" y="0.5" width="63" height="63" rx="3.5" stroke="white"/>
</svg>
