<svg fill="none" height="75" viewBox="0 0 100 75" width="100" xmlns="http://www.w3.org/2000/svg"><g stroke="#000"><path d="m97.9544 73.4999h-52.2931l27.5747-27.2514z" fill="#ff8576"/><path d="m85.4272 38.3562 6.8134-.4505.4505 6.8134" stroke-miterlimit="10"/><path d="m34.1481 56.4315 17.8501-15.091 19.8022 17.6437 20.3652-20.9096" stroke-miterlimit="10"/><path d="m51.4244 55.7573 20.3503 17.7427h-41.4054z" fill="#fff"/><path d="m59.5851 24.35h10.0043c1.061 0 1.9211.8601 1.9211 1.9211v10.0044c0 1.061-.8601 1.9211-1.9211 1.9211h-10.0043c-1.0611 0-1.9212-.8601-1.9212-1.9211v-10.0044c0-1.061.8601-1.9211 1.9212-1.9211z" fill="#fff" stroke-width=".7"/></g><path d="m67.4304 31.17 1.9333-2.4026c.1314-.1689.0563-.3754-.169-.3754h-.3753c-.1127 0-.2065.0563-.2628.1314l-1.9896 2.4401.3191-.7883s0-.0939 0-.1314l-.6945-1.5016s-.1126-.1502-.2253-.1502h-3.4724c-.6757 0-1.3326.2628-1.8019.7696-.6382.6757-.7695 1.6142-.8822 2.4964-.0563.4692-.0938.9572.1127 1.3702.3003.5818.8446.9385 1.5391.9385h1.8394c.2065 0 .2816-.1314.3191-.3004l.4317-2.3086c.0188-.1877-.0375-.3567-.244-.3567h-1.464c-.0939 0-.169.0563-.169.1502 0 .3191.2628.5819.5631.6382.2816.0375.2628.1689.244.3566l-.1501.9197s-.0376.0563-.0939.0563c-1.2012 0-2.2148.1877-1.9896-1.464.169-.901.169-1.8019 1.1262-2.2336.5068-.2253 1.1637-.1502 1.6893-.1502.3942 0 .6194-.244.6945-.6006.7508.1877 1.1825.488 1.5016 1.0511.2627.4505.4504.9385.6757 1.4077l-1.9708 2.4026s-.0939.1313-.0939.2252c0 .1126.0751.2252.1877.2252h.4692c.1127 0 .2065-.0563.2816-.1501l1.5203-1.877.8072 1.7456c.075.1501.1313.2815.3003.2815h.3566c.1126 0 .2065-.0563.2628-.1689.0375-.0938 0-.1689-.0376-.244l-1.1074-2.365z" fill="#000"/><path d="m69.1084 62.7579 12.1432 10.7421h-24.7069z" fill="#fbd462" stroke="#000"/></svg>