<svg fill="none" height="75" viewBox="0 0 100 75" width="100" xmlns="http://www.w3.org/2000/svg"><g stroke="#000"><path d="m48.6547 49c0-13.8066 11.1934-25 25.0206-25s25 11.1934 25 25-11.1934 25-25 25" stroke-miterlimit="10"/><path d="m51.3292 46.5513-2.6749 2.6543-2.6543-2.6543" stroke-miterlimit="10"/><path d="m72.2265 55.4097c0 3.5023-2.8392 6.3415-6.3416 6.3415-3.5023 0-6.3415-2.8392-6.3415-6.3415 0-3.5024 2.8392-6.3416 6.3415-6.3416 3.5024 0 6.3416 2.8392 6.3416 6.3416z" fill="#ff8576"/><path d="m76.9714 49.8088h11.1811v11.181h-11.1811z" fill="#fbd462"/><path d="m81.8411 44.8581h-15.3287l7.6735-11.2263z" fill="#41ceb3"/></g></svg>