<svg fill="none" height="75" viewBox="0 0 100 75" width="100" xmlns="http://www.w3.org/2000/svg"><g stroke="#000"><path d="m88.7204 52.81-.1698-.033-.154.079c-2.3693 1.2167-5.0598 1.9005-7.9238 1.9005-9.7218 0-17.6282-7.9064-17.6282-17.6283 0-9.7214 7.906-17.6282 17.6502-17.6282 9.5759 0 17.3565 7.6364 17.6213 17.1282h-.037v.5c0 4.0154-1.3665 7.7114-3.6331 10.6836l-.1342.1761.04.2177 1.0881 5.9098z" fill="#fbd462"/><path d="m34.8122 67.6057c-.3516 0-.7031-.0659-1.0547-.1758-2.1974-.7471-3.7575-2.8346-3.7575-5.2737v-24.7862c0-2.461 1.9996-4.4606 4.4606-4.4606h43.5078c2.4611 0 4.4607 1.9996 4.4607 4.4606v25.9069c0 2.461-1.9996 4.4606-4.4607 4.4606h-31.2465l-8.9872 6.2625v-6.3723h-2.9005z" stroke-miterlimit="10"/><path d="m44.4634 41.8965c0 2.3573-1.911 4.2683-4.2683 4.2683s-4.2683-1.911-4.2683-4.2683 1.911-4.2683 4.2683-4.2683 4.2683 1.911 4.2683 4.2683z" fill="#41ceb3"/><path d="m35.4268 54.6411h27.7966" stroke-miterlimit="10"/></g></svg>