<svg fill="none" height="75" viewBox="0 0 100 75" width="100" xmlns="http://www.w3.org/2000/svg"><g stroke="#000"><path d="m71.0878 34.3779h10.2061v35.9771h-10.2061z" stroke-miterlimit="10"/><path d="m55.4844 44.8817h10.2061v25.4886h-10.2061z" fill="#af8eff"/><path d="m86.6912 38.8359h10.2061v31.5343h-10.2061z" fill="#fbd462"/><g stroke-miterlimit="10"><path d="m53 74h46.3817"/><path d="m74.6181 25.9236-13.084 12.4123"/><path d="m91.4278 33.0534-13.6641-7.1298"/><path d="m93.5803 32.2595 4.7786-5.0229"/><path d="m60.5877 41.5115c1.0624 0 1.9237-.8613 1.9237-1.9237s-.8613-1.9237-1.9237-1.9237-1.9236.8613-1.9236 1.9237.8612 1.9237 1.9236 1.9237z" fill="#41ceb3"/><path d="m76.1911 27.8473c1.0624 0 1.9237-.8612 1.9237-1.9236s-.8613-1.9237-1.9237-1.9237-1.9236.8613-1.9236 1.9237.8612 1.9236 1.9236 1.9236z" fill="#41ceb3"/><path d="m91.7937 34.9771c1.0624 0 1.9237-.8613 1.9237-1.9237s-.8613-1.9236-1.9237-1.9236-1.9236.8612-1.9236 1.9236.8612 1.9237 1.9236 1.9237z" fill="#41ceb3"/></g></g></svg>