<svg width="48" height="48" viewBox="0 0 48 48" fill="none" xmlns="http://www.w3.org/2000/svg">
<path d="M41.9641 35.0986L43.7176 36.8522L41.9641 38.6196" stroke="white" stroke-miterlimit="10"/>
<path d="M30.6916 22.5735H11.6394C7.7148 22.5735 4.5 25.7883 4.5 29.7129C4.5 33.6374 7.7148 36.8522 11.6394 36.8522H43.7178" stroke="white" stroke-miterlimit="10"/>
<path d="M10.5398 11.4121H34.9779C37.8447 11.4121 40.1828 13.7362 40.1828 16.617C40.1828 19.9014 37.5107 22.5735 34.2263 22.5735H24.067" stroke="white" stroke-miterlimit="10"/>
<path d="M19.2656 22.5178V22.5039C19.2656 20.836 17.9135 19.4839 16.2457 19.4839H16.2317C14.5639 19.4839 13.2118 20.836 13.2118 22.5039V22.5178C13.2118 24.1857 14.5639 25.5377 16.2317 25.5377H16.2457C17.9135 25.5377 19.2656 24.1857 19.2656 22.5178Z" fill="white"/>
<path d="M29.815 36.7967C29.815 34.3371 27.8212 32.3433 25.3616 32.3433C22.9021 32.3433 20.9082 34.3371 20.9082 36.7967C20.9082 39.2562 22.9021 41.2501 25.3616 41.2501C27.8212 41.2501 29.815 39.2562 29.815 36.7967Z" fill="#41CEB3"/>
<path d="M36.94 11.4122C36.94 8.83732 34.8527 6.75 32.2779 6.75C29.703 6.75 27.6157 8.83732 27.6157 11.4122C27.6157 13.987 29.703 16.0743 32.2779 16.0743C34.8527 16.0743 36.94 13.987 36.94 11.4122Z" fill="#404040"/>
</svg>
