<svg width="48" height="48" viewBox="0 0 48 48" fill="none" xmlns="http://www.w3.org/2000/svg">
<path d="M17.9202 30.7942C17.9202 27.0907 14.9179 24.0884 11.2144 24.0884C7.51085 24.0884 4.50854 27.0907 4.50854 30.7942C4.50854 34.4977 7.51085 37.5 11.2144 37.5C14.9179 37.5 17.9202 34.4977 17.9202 30.7942Z" fill="#404040"/>
<path d="M38.9685 19.0796V32.1377C38.9685 32.1377 32.0387 35.2844 24.0955 35.2844C16.1522 35.2844 9.22241 32.1377 9.22241 32.1377V19.0796" stroke="white" stroke-linejoin="round"/>
<path d="M43.6864 23.9854L44.8824 25.0235V28.4203H42.5V25.0225L43.6864 23.9854Z" fill="#41CEB3" stroke="#41CEB3"/>
<path d="M43.6853 25.4791V17.4651" stroke="#41CEB3" stroke-linejoin="round"/>
<path d="M3 17.4887L23.86 10.5L45.1914 17.4887L24.0957 24.6777L3 17.4887Z" fill="black" stroke="white" stroke-linejoin="round"/>
</svg>
