<svg width="48" height="48" viewBox="0 0 48 48" fill="none" xmlns="http://www.w3.org/2000/svg">
<path d="M42 24C42 14.0589 33.9411 6 24 6C14.0589 6 6 14.0589 6 24C6 33.9411 14.0589 42 24 42C33.9411 42 42 33.9411 42 24Z" stroke="white" stroke-miterlimit="10"/>
<path d="M19.4978 20.8274V19.0076C19.4978 16.5074 21.5233 14.4819 24.0235 14.4819C26.5237 14.4819 28.5492 16.5074 28.5492 19.0076V20.8274" stroke="white" stroke-miterlimit="10"/>
<path d="M17.7097 20.3523V31.6191H30.3058V20.3523H17.7097ZM25.2895 25.8275V27.5523C25.2895 28.2327 24.7357 28.8024 24.0394 28.8024H23.9603C23.2798 28.8024 22.7102 28.2486 22.7102 27.5523V25.8275C22.3778 25.4952 22.188 25.0521 22.188 24.5457C22.188 23.5488 22.995 22.7259 24.0077 22.7259C25.0205 22.7259 25.8275 23.533 25.8275 24.5457C25.8275 25.0521 25.6218 25.4952 25.3053 25.8275H25.2895Z" fill="#AE8DFF"/>
</svg>
