<svg width="48" height="48" viewBox="0 0 48 48" fill="none" xmlns="http://www.w3.org/2000/svg">
<path d="M37.6966 36.4219C31.4034 43.3852 20.7459 44.5948 13.0144 38.9228C7.97985 35.2286 5.34817 29.4585 5.44625 23.6558" stroke="white" stroke-miterlimit="10"/>
<path d="M9.04224 13.047C15.0902 4.80872 26.6794 3.02703 34.9177 9.07498C40.2955 13.0143 42.9108 19.3075 42.4204 25.4862" stroke="white" stroke-miterlimit="10"/>
<path d="M23.9905 31.878C27.5467 31.878 30.4295 28.9952 30.4295 25.439C30.4295 21.8828 27.5467 19 23.9905 19C20.4344 19 17.5515 21.8828 17.5515 25.439C17.5515 28.9952 20.4344 31.878 23.9905 31.878Z" fill="#41CEB3"/>
<mask id="path-4-inside-1_789_12261" fill="white">
<path d="M46 21.9883L42.4693 25.7478L38.7097 22.2335"/>
</mask>
<path d="M42.4693 25.7478L41.7864 26.4783L42.5152 27.1597L43.1982 26.4324L42.4693 25.7478ZM45.271 21.3037L41.7403 25.0632L43.1982 26.4324L46.7289 22.6729L45.271 21.3037ZM43.1521 25.0173L39.3926 21.5029L38.0268 22.964L41.7864 26.4783L43.1521 25.0173Z" fill="white" mask="url(#path-4-inside-1_789_12261)"/>
<mask id="path-6-inside-2_789_12261" fill="white">
<path d="M2.25879 27.4971L5.44623 23.4434L9.49999 26.6308"/>
</mask>
<path d="M5.44623 23.4434L6.06433 22.6573L5.27823 22.0392L4.66013 22.8253L5.44623 23.4434ZM3.04489 28.1152L6.23232 24.0615L4.66013 22.8253L1.47269 26.879L3.04489 28.1152ZM4.82812 24.2295L8.88189 27.4169L10.1181 25.8447L6.06433 22.6573L4.82812 24.2295Z" fill="white" mask="url(#path-6-inside-2_789_12261)"/>
<path d="M24 11V25.9078L31.1898 33.7677" stroke="white" stroke-miterlimit="10"/>
</svg>
